<svg width="73" height="220" viewBox="0 0 73 220" fill="none" xmlns="http://www.w3.org/2000/svg">
<path d="M-41.2617 1C-15.419 1.00004 4.53241 5.93954 19.9336 14.3838C35.3274 22.824 46.2343 34.7978 53.9443 48.9668C69.3925 77.3568 72 114.537 72 149.65C72 167.096 68.8165 180.058 62.5322 189.726C56.2584 199.377 46.8182 205.862 34.0713 210.215C21.3035 214.575 5.26727 216.779 -14.1162 217.886C-33.4934 218.992 -56.1415 219 -82.1191 219C-135.878 219 -176.848 207.403 -203.803 186.602C-209.988 181.828 -212.047 177.741 -211.999 173.872C-211.95 169.895 -209.695 165.846 -206.459 161.104C-200.083 151.759 -190.231 140.222 -190.23 122.941C-190.23 88.052 -178.789 57.6098 -154.533 35.8789C-130.265 14.1365 -93.0404 1 -41.2617 1Z" fill="#32B15D" stroke="#121212" stroke-width="2"/>
</svg>
